{
	"asset":{
		"generator":"Khronos glTF Blender I/O v3.5.30",
		"version":"2.0"
	},
	"scene":0,
	"scenes":[
		{
			"name":"Scene",
			"nodes":[
				0
			]
		}
	],
	"nodes":[
		{
			"mesh":0,
			"name":"Palm-tree",
			"rotation":[
				0.7071068286895752,
				0,
				0,
				0.7071068286895752
			],
			"scale":[
				0.009999999776482582,
				0.009999999776482582,
				0.009999999776482582
			]
		}
	],
	"meshes":[
		{
			"name":"Cylinder",
			"primitives":[
				{
					"attributes":{
						"POSITION":0,
						"TEXCOORD_0":1,
						"NORMAL":2
					},
					"indices":3
				}
			]
		}
	],
	"accessors":[
		{
			"bufferView":0,
			"componentType":5126,
			"count":2040,
			"max":[
				196.80386352539062,
				116.27620697021484,
				-1.2168400287628174
			],
			"min":[
				-127.34516906738281,
				-207.58984375,
				-540.7982788085938
			],
			"type":"VEC3"
		},
		{
			"bufferView":1,
			"componentType":5126,
			"count":2040,
			"type":"VEC2"
		},
		{
			"bufferView":2,
			"componentType":5126,
			"count":2040,
			"type":"VEC3"
		},
		{
			"bufferView":3,
			"componentType":5123,
			"count":3024,
			"type":"SCALAR"
		}
	],
	"bufferViews":[
		{
			"buffer":0,
			"byteLength":24480,
			"byteOffset":0,
			"target":34962
		},
		{
			"buffer":0,
			"byteLength":16320,
			"byteOffset":24480,
			"target":34962
		},
		{
			"buffer":0,
			"byteLength":24480,
			"byteOffset":40800,
			"target":34962
		},
		{
			"buffer":0,
			"byteLength":6048,
			"byteOffset":65280,
			"target":34963
		}
	],
	"buffers":[
		{
			"byteLength":71328,
			"uri":"data:application/octet-stream;base64,"
		}
	]
}
